<svg viewBox="0 0 180 50" xmlns="http://www.w3.org/2000/svg">
  <!-- Background circle for depth -->
  <circle cx="25" cy="25" r="18" fill="#7c3aed" opacity="0.08"/>
  
  <!-- Main catalog icon -->
  <g transform="translate(10, 8)">
    <!-- Back catalog page -->
    <rect x="4" y="6" width="16" height="20" rx="2" fill="#a855f7" opacity="0.4"/>
    
    <!-- Middle catalog page -->
    <rect x="2" y="4" width="16" height="20" rx="2" fill="#9333ea" opacity="0.7"/>
    
    <!-- Front catalog page -->
    <rect x="0" y="2" width="16" height="20" rx="2" fill="#7c3aed"/>
    
    <!-- Product grid lines on front page -->
    <rect x="2" y="5" width="4" height="3" rx="0.5" fill="white" opacity="0.3"/>
    <rect x="7" y="5" width="4" height="3" rx="0.5" fill="white" opacity="0.3"/>
    <rect x="12" y="5" width="2" height="3" rx="0.5" fill="white" opacity="0.3"/>
    
    <rect x="2" y="9" width="4" height="3" rx="0.5" fill="white" opacity="0.3"/>
    <rect x="7" y="9" width="4" height="3" rx="0.5" fill="white" opacity="0.3"/>
    <rect x="12" y="9" width="2" height="3" rx="0.5" fill="white" opacity="0.3"/>
    
    <!-- Small connecting dots -->
    <circle cx="18" cy="12" r="1.5" fill="#7c3aed" opacity="0.6"/>
    <circle cx="22" cy="12" r="1" fill="#7c3aed" opacity="0.4"/>
  </g>
  
  <!-- Company name -->
  <text x="55" y="20" font-family="system-ui, -apple-system, 'Segoe UI', sans-serif" font-size="16" font-weight="700" fill="#1f2937">
    Catalog
  </text>
  <text x="55" y="37" font-family="system-ui, -apple-system, 'Segoe UI', sans-serif" font-size="16" font-weight="700" fill="#7c3aed">
    Cove
  </text>
</svg>